<?xml version="1.0" standalone="no"?>
<!DOCTYPE svg PUBLIC "-//W3C//DTD SVG 20010904//EN"
 "http://www.w3.org/TR/2001/REC-SVG-20010904/DTD/svg10.dtd">
<svg version="1.0" xmlns="http://www.w3.org/2000/svg"
 width="1080.000000pt" height="1080.000000pt" viewBox="0 0 1080.000000 1080.000000"
 preserveAspectRatio="xMidYMid meet">
<metadata>
Created by potrace 1.14, written by Peter Selinger 2001-2017
</metadata>
<g transform="translate(0.000000,1080.000000) scale(0.100000,-0.100000)"
fill="#000000" stroke="none">
<path d="M0 5400 l0 -5400 5400 0 5400 0 0 5400 0 5400 -5400 0 -5400 0 0
-5400z m3010 4445 c10 -12 16 -12 37 3 22 14 48 16 177 13 83 -2 167 -4 186
-3 19 0 181 0 360 0 179 0 397 0 485 1 88 1 284 1 435 0 151 0 295 -1 320 -1
25 0 79 0 120 -1 41 0 91 0 110 0 19 0 444 1 945 2 705 0 911 -2 917 -12 5 -7
6 -21 4 -31 -6 -24 10 -56 29 -56 24 0 45 30 39 54 -11 45 -3 46 475 47 409 2
454 0 469 -15 15 -15 17 -139 18 -1584 1 -1027 5 -1576 11 -1592 7 -17 7 -33
0 -50 -7 -17 -11 -674 -12 -2075 -2 -1907 -3 -2054 -19 -2102 -16 -47 -16 -56
-1 -112 9 -36 13 -76 9 -99 -3 -22 -2 -48 4 -58 6 -11 8 -41 5 -67 -5 -44 -8
-48 -28 -43 -14 4 -28 0 -35 -9 -15 -18 -50 -19 -84 -4 -19 9 -29 9 -39 1 -9
-8 -144 -11 -447 -11 -375 0 -438 2 -458 15 -21 14 -25 14 -42 -1 -15 -13 -22
-14 -40 -5 -12 6 -29 9 -38 5 -31 -12 -175 -16 -208 -5 -26 9 -38 8 -57 -4
-13 -9 -26 -13 -30 -10 -3 4 -235 6 -514 6 -295 0 -524 4 -546 10 -24 5 -43 6
-50 0 -7 -5 -41 -7 -77 -4 -36 2 -78 4 -95 3 -16 -1 -623 -4 -1347 -6 -1090
-3 -1319 -1 -1328 10 -8 9 -10 281 -9 972 1 527 2 987 2 1023 -4 905 -1 2078
5 2117 5 29 5 58 1 65 -5 7 -9 166 -9 353 0 187 -1 755 -2 1262 -1 1038 -2
1016 66 962 35 -28 56 -19 56 24 0 19 -3 36 -6 40 -4 3 -24 -3 -46 -14 -70
-36 -70 -36 -64 285 2 155 4 292 3 306 -4 90 -1 360 6 382 4 14 14 28 23 30 9
2 81 2 160 0 108 -2 145 -6 154 -17z m5270 -3181 c0 -8 -5 -12 -10 -9 -6 4 -8
11 -5 16 9 14 15 11 15 -7z m-5018 -4779 c33 -6 39 -12 48 -46 9 -33 15 -39
37 -39 31 0 63 -26 63 -51 0 -31 -39 -49 -108 -49 -79 0 -102 11 -102 50 0 23
-5 31 -25 36 -47 12 -49 6 -52 -129 -1 -70 1 -128 5 -128 4 -1 20 -3 35 -5 35
-4 53 -18 60 -45 7 -26 -33 -69 -62 -69 -30 0 -35 -17 -37 -118 -1 -54 -6 -98
-13 -105 -21 -21 -11 -35 28 -42 49 -8 90 -48 75 -73 -6 -9 -28 -20 -50 -25
-52 -12 -292 -1 -310 14 -17 14 -19 65 -3 75 7 4 26 7 43 8 l31 1 3 124 c3
131 -3 151 -42 151 -29 0 -46 18 -46 50 0 32 17 50 46 50 36 0 43 21 46 146
l3 119 27 3 c29 4 43 16 67 64 9 19 27 35 41 39 29 8 138 4 192 -6z m2566 -19
c6 -13 6 -30 0 -46 -5 -14 -7 -41 -4 -61 9 -54 -8 -63 -99 -54 -41 4 -77 10
-79 14 -3 4 -6 40 -8 80 -1 54 2 75 12 81 8 5 49 8 91 8 68 -1 78 -4 87 -22z
m1204 -83 c10 -12 15 -41 16 -91 0 -55 5 -78 17 -92 16 -17 20 -18 38 -5 33
23 188 21 217 -3 18 -15 20 -21 11 -45 -12 -32 1 -29 -140 -32 -92 -1 -116 -5
-126 -18 -16 -22 -29 -301 -15 -327 24 -45 80 -31 80 20 0 41 22 54 92 51 73
-3 96 -13 104 -46 8 -34 -10 -53 -54 -57 -35 -3 -37 -5 -34 -35 3 -51 -30 -67
-121 -59 -153 13 -167 18 -167 63 0 18 -9 25 -44 34 -25 6 -47 17 -50 24 -2 7
0 73 5 147 12 158 2 201 -51 211 -26 6 -30 11 -30 37 0 25 5 33 30 42 28 9 34
19 42 73 2 12 16 23 38 30 49 14 60 23 60 49 0 44 52 63 82 29z m-3071 -194
c5 -10 6 -24 3 -32 -8 -21 35 -57 68 -57 24 0 28 -4 28 -29 0 -32 -28 -49 -90
-52 -70 -4 -77 -1 -94 40 -20 52 -38 60 -116 56 -76 -4 -90 -17 -70 -64 10
-24 18 -31 41 -31 30 0 49 -23 49 -58 0 -22 39 -32 121 -32 48 0 59 -9 59 -49
0 -26 44 -63 71 -59 20 2 25 -2 27 -25 4 -36 -13 -57 -48 -57 -34 0 -47 -15
-52 -60 l-3 -35 -160 -1 c-185 -1 -212 6 -217 58 -3 30 -6 33 -40 36 -31 3
-39 8 -44 28 -13 52 20 74 111 74 64 0 89 -18 80 -60 l-6 -27 78 -5 c87 -6
106 1 101 41 -2 19 -11 29 -36 37 -42 13 -53 25 -61 66 l-7 33 -72 2 c-82 1
-102 12 -102 55 0 46 -17 70 -40 58 -25 -14 -28 -13 -40 9 -7 13 -7 28 0 45 8
22 15 26 42 24 31 -3 33 -1 36 32 6 60 7 60 199 58 154 -2 175 -4 184 -19z
m650 0 c5 -8 9 -24 9 -36 0 -17 9 -25 40 -34 49 -15 51 -23 49 -154 0 -55 2
-121 6 -148 8 -55 -4 -77 -42 -77 -40 0 -61 -16 -56 -43 3 -15 -2 -31 -13 -42
-16 -16 -34 -17 -175 -13 -171 5 -192 11 -187 57 3 23 -2 27 -37 35 -22 4 -46
10 -52 12 -10 2 -12 44 -9 173 2 93 7 175 11 180 3 6 21 11 40 11 31 0 35 3
45 40 6 21 18 43 26 48 9 5 88 8 176 7 126 -1 162 -5 169 -16z m641 9 c13 -6
17 -19 15 -41 -2 -31 -1 -32 42 -37 38 -4 46 -9 54 -33 7 -22 5 -32 -9 -48
-15 -17 -29 -19 -93 -17 l-76 3 -13 41 -13 41 -77 6 c-42 3 -81 2 -86 -3 -12
-12 -8 -352 4 -364 5 -5 21 -8 37 -7 15 1 51 3 78 4 49 2 50 2 53 37 5 49 19
63 56 55 17 -3 52 -6 78 -5 42 1 49 -2 60 -24 18 -42 0 -70 -48 -70 -37 -1
-39 -3 -40 -34 -2 -55 -18 -63 -130 -63 -54 0 -115 5 -134 11 -19 5 -49 10
-65 10 -35 0 -55 15 -55 42 0 20 -28 38 -59 38 -11 0 -25 9 -31 19 -12 23 -14
310 -2 328 4 7 25 18 46 25 22 7 44 22 50 33 36 67 20 62 188 62 84 0 161 -4
170 -9z m302 -7 c23 -26 17 -52 -16 -70 -39 -22 -82 -5 -86 34 -6 51 65 76
102 36z m263 7 c19 -24 22 -61 8 -95 -11 -26 -12 -40 -4 -55 6 -12 9 -39 7
-62 -3 -23 -2 -66 2 -96 4 -30 3 -70 -2 -89 -6 -19 -6 -37 -1 -42 5 -5 44 -11
87 -14 87 -5 108 -16 104 -54 -5 -47 -34 -52 -238 -46 -102 3 -209 5 -237 5
-68 -1 -93 12 -93 50 0 38 11 43 86 41 95 -3 102 4 102 93 1 43 6 83 14 95 10
17 10 25 0 41 -6 11 -12 47 -12 80 0 54 -2 61 -30 82 -34 24 -39 52 -12 67 26
15 207 14 219 -1z m547 -3 c25 -11 42 -12 54 -6 10 5 45 13 78 16 67 8 80 0
86 -50 3 -26 7 -30 34 -30 53 -1 64 -18 64 -101 0 -103 0 -103 -200 -97 l-158
4 -12 -35 c-11 -35 -5 -145 9 -147 40 -5 130 -3 144 3 9 5 17 19 17 33 0 41
25 55 100 55 77 0 94 -14 88 -68 -2 -22 -9 -28 -33 -30 -40 -5 -55 -19 -55
-52 0 -46 -18 -52 -152 -51 -123 2 -200 14 -217 35 -5 6 -11 22 -13 36 -2 16
-10 26 -23 28 -60 9 -64 11 -63 45 1 17 1 82 0 142 -1 181 4 200 50 187 24 -6
38 13 38 51 0 19 7 30 23 37 35 14 101 11 141 -5z m1196 9 c41 -9 50 -32 21
-56 -13 -10 -18 -18 -12 -18 6 0 18 -14 27 -32 13 -25 15 -47 10 -102 -9 -96
-7 -193 4 -221 11 -28 49 -38 125 -33 47 3 50 5 53 33 2 17 6 37 9 45 3 8 5
20 3 25 -1 6 -4 75 -6 155 -4 156 3 194 39 204 37 10 101 6 127 -7 23 -12 25
-18 27 -97 1 -59 -3 -94 -14 -117 -14 -30 -14 -37 1 -73 17 -43 21 -136 7
-159 -6 -9 -18 -11 -34 -7 -41 10 -57 -15 -57 -90 0 -81 -11 -104 -50 -104
-22 0 -33 -7 -44 -29 -12 -22 -20 -27 -39 -24 -30 6 -34 -1 -47 -68 -6 -29
-16 -57 -23 -61 -21 -13 -261 -10 -275 4 -10 10 -17 10 -32 0 -39 -24 -75 22
-51 67 16 29 54 36 117 21 36 -9 67 -10 96 -4 37 8 46 14 63 52 13 28 26 42
39 42 19 0 76 46 76 60 0 4 -18 15 -40 25 -29 13 -53 16 -89 12 -46 -5 -52 -4
-71 20 -11 14 -20 34 -20 43 0 20 -19 30 -56 30 -13 0 -24 3 -24 8 -1 4 -2
104 -3 222 l-2 214 25 13 c28 14 71 16 120 7z"/>
<path d="M2735 9780 c-7 -23 10 -50 31 -50 17 0 18 11 2 45 -14 30 -24 32 -33
5z"/>
<path d="M2860 9710 c0 -5 5 -10 10 -10 6 0 10 5 10 10 0 6 -4 10 -10 10 -5 0
-10 -4 -10 -10z"/>
<path d="M2950 9592 c-39 -15 -45 -22 -52 -57 -5 -22 -5 -58 0 -80 4 -22 6
-83 3 -135 -2 -52 -4 -115 -4 -140 1 -25 1 -175 1 -335 1 -159 1 -299 2 -310
0 -11 1 -35 1 -53 0 -18 5 -30 10 -27 5 4 9 13 9 21 0 8 6 14 14 14 8 0 28 17
45 38 159 194 367 402 476 475 22 14 72 48 110 74 105 73 291 173 380 206 22
8 65 25 95 37 30 12 73 28 95 35 22 8 77 27 122 43 46 17 102 33 125 37 24 3
57 12 73 20 36 16 97 28 310 61 140 22 202 26 505 31 501 8 707 -11 1085 -98
126 -29 246 -67 330 -104 17 -8 84 -37 150 -66 414 -179 755 -446 971 -761 21
-32 44 -56 49 -55 16 6 19 1116 3 1122 -7 3 -965 7 -2128 10 -1163 3 -2124 6
-2135 6 -11 1 -139 1 -285 -1 -146 -1 -276 1 -290 4 -14 3 -45 -2 -70 -12z"/>
<path d="M4910 9315 c-9 -11 -10 -19 -2 -27 14 -14 32 -1 32 23 0 23 -13 25
-30 4z"/>
<path d="M2825 9261 c-3 -5 -1 -12 5 -16 5 -3 10 1 10 9 0 18 -6 21 -15 7z"/>
<path d="M3922 8609 c2 -6 8 -10 13 -10 5 0 11 4 13 10 2 6 -4 11 -13 11 -9 0
-15 -5 -13 -11z"/>
<path d="M3887 8463 c-6 -34 -3 -53 7 -42 9 10 16 79 8 79 -5 0 -12 -17 -15
-37z"/>
<path d="M4002 8421 c4 -13 18 -16 19 -4 0 4 -5 9 -11 12 -7 2 -11 -2 -8 -8z"/>
<path d="M2747 8354 c-8 -8 1 -24 14 -24 5 0 9 7 9 15 0 15 -12 20 -23 9z"/>
<path d="M3200 8200 c0 -5 5 -10 10 -10 6 0 10 5 10 10 0 6 -4 10 -10 10 -5 0
-10 -4 -10 -10z"/>
<path d="M3886 8093 c-11 -11 -6 -23 9 -23 8 0 15 4 15 9 0 13 -16 22 -24 14z"/>
<path d="M7765 7945 c-17 -7 -63 -43 -102 -80 -87 -80 -121 -144 -129 -243 -4
-37 -13 -91 -21 -120 -9 -32 -15 -100 -16 -165 -1 -181 -1 -181 37 -215 19
-17 44 -33 55 -37 11 -3 22 -14 26 -23 3 -10 29 -30 58 -45 28 -15 74 -43 101
-62 26 -19 54 -35 61 -35 8 0 22 12 33 28 23 32 22 104 -3 152 -18 34 -94 73
-166 85 -51 8 -112 42 -106 59 2 7 49 13 133 16 125 5 129 6 141 30 8 16 12
56 11 110 -3 82 -4 85 -31 98 -15 8 -54 16 -85 19 -62 5 -112 20 -112 34 0 4
19 13 43 19 184 45 182 42 182 222 0 127 -2 141 -19 154 -24 17 -51 17 -91 -1z
m-87 -816 c2 -13 -8 -21 -60 -47 -5 -2 -8 8 -8 22 0 40 61 63 68 25z"/>
<path d="M2906 7932 c-3 -9 -6 -74 -8 -145 -3 -125 -2 -128 24 -161 22 -27 40
-37 98 -51 52 -13 75 -24 86 -41 22 -33 12 -42 -54 -50 -56 -6 -130 -36 -144
-58 -13 -19 -9 -143 5 -154 6 -5 35 -13 62 -16 204 -23 225 -28 225 -51 0 -7
-17 -16 -37 -20 -21 -3 -47 -12 -58 -19 -11 -8 -35 -17 -53 -21 -18 -4 -59
-21 -90 -39 l-57 -32 -1 -65 c-2 -114 7 -120 95 -63 31 19 94 60 140 90 106
68 120 80 142 129 23 49 24 125 5 231 -8 44 -17 128 -20 187 -9 155 -36 212
-141 308 l-57 52 -78 3 c-67 3 -80 0 -84 -14z"/>
<path d="M4165 7834 c-22 -8 -58 -14 -80 -13 -22 1 -66 -6 -99 -15 -32 -10
-74 -16 -94 -14 -26 2 -37 -2 -41 -15 -7 -19 -72 -57 -99 -57 -10 0 -29 -8
-42 -17 -33 -23 -92 -53 -104 -53 -5 0 -19 -8 -30 -18 -12 -10 -56 -40 -99
-66 -82 -51 -93 -66 -104 -142 -5 -39 -3 -44 20 -55 19 -9 34 -9 54 -1 188 71
292 119 359 164 115 77 263 95 364 44 30 -16 77 -45 104 -65 28 -20 60 -43 72
-51 22 -15 67 -50 199 -155 39 -30 95 -72 125 -92 30 -20 69 -51 86 -67 74
-73 120 -109 166 -127 108 -42 223 -11 259 70 10 24 17 53 13 63 -3 12 4 31
20 53 30 39 31 49 10 120 -13 45 -23 59 -62 87 -26 18 -58 39 -72 46 -14 7
-34 18 -45 25 -11 7 -42 26 -70 42 -111 65 -185 117 -195 135 -6 11 -19 20
-30 20 -22 0 -53 13 -95 39 -44 28 -126 69 -155 77 -14 3 -32 13 -41 21 -10 8
-49 16 -105 19 -49 2 -102 7 -119 9 -16 2 -48 -2 -70 -11z"/>
<path d="M6477 7829 c-62 -6 -97 -15 -117 -29 -15 -11 -40 -20 -53 -20 -14 0
-29 -5 -32 -11 -4 -6 -28 -9 -53 -8 -35 3 -48 0 -50 -11 -2 -8 -29 -34 -60
-58 -148 -113 -175 -132 -187 -132 -6 0 -20 -9 -30 -20 -10 -11 -28 -20 -39
-20 -12 0 -34 -14 -50 -31 -17 -16 -41 -32 -55 -36 -43 -10 -157 -80 -175
-107 -10 -16 -16 -46 -16 -82 0 -78 65 -213 119 -246 76 -48 223 -11 271 67
14 23 30 35 54 39 20 4 57 27 90 56 32 28 61 50 65 50 4 0 28 20 53 45 25 25
52 45 58 45 14 0 112 78 200 159 30 28 60 51 66 51 6 0 23 9 37 20 14 11 37
20 50 20 14 0 29 5 32 11 15 22 56 29 128 19 94 -14 132 -28 315 -123 124 -64
227 -106 263 -107 3 0 12 15 21 33 13 27 13 37 2 70 -7 21 -23 50 -35 65 -33
43 -155 130 -240 172 -89 44 -277 107 -341 114 -105 12 -209 14 -291 5z m-714
-696 c9 -8 -22 -43 -39 -43 -17 0 -27 18 -20 35 5 15 47 21 59 8z"/>
<path d="M4500 7060 c0 -5 9 -10 20 -10 11 0 20 5 20 10 0 6 -9 10 -20 10 -11
0 -20 -4 -20 -10z"/>
<path d="M3535 6979 c-4 -5 -18 -14 -31 -19 -13 -5 -29 -22 -35 -37 -6 -16
-16 -35 -24 -43 -7 -8 -16 -31 -19 -50 -4 -19 -12 -45 -19 -58 -8 -17 -8 -43
1 -103 6 -43 9 -85 7 -92 -4 -11 64 -51 73 -43 2 2 5 48 7 103 1 56 10 119 19
146 9 27 14 52 11 57 -3 5 10 37 30 73 19 35 35 67 35 70 0 11 -48 8 -55 -4z"/>
<path d="M7160 6983 c0 -4 16 -34 36 -66 20 -32 34 -63 31 -70 -8 -22 22 -141
39 -154 14 -10 15 -19 7 -50 -5 -21 -7 -46 -5 -55 4 -20 22 -24 22 -5 0 6 11
33 25 59 21 39 25 61 25 128 0 45 -5 91 -11 103 -17 32 -70 87 -101 103 -29
15 -68 19 -68 7z"/>
<path d="M4270 6961 c0 -39 -13 -51 -75 -70 -82 -26 -134 -59 -216 -138 -70
-67 -84 -93 -120 -213 -22 -73 -45 -119 -63 -120 -4 0 -31 -18 -58 -40 -28
-22 -54 -40 -58 -40 -12 0 -30 -49 -20 -55 5 -3 42 7 82 24 40 16 98 35 128
41 30 7 73 19 95 27 29 11 87 15 210 16 149 0 178 -3 234 -21 35 -12 67 -22
72 -22 15 0 179 -82 185 -92 4 -6 22 -16 40 -24 19 -8 34 -19 34 -24 0 -6 14
-10 30 -10 37 0 39 18 7 57 -33 41 -57 80 -57 95 0 13 128 138 142 138 13 0
28 38 28 72 0 36 -53 134 -95 177 -13 14 -39 30 -57 35 -22 8 -34 18 -36 34
-4 28 -41 30 -64 3 -10 -12 -24 -18 -37 -14 -30 8 -34 32 -7 43 36 13 38 25 8
41 -15 7 -33 18 -40 23 -15 11 -91 18 -174 16 -66 -1 -98 12 -98 40 0 11 -4
20 -10 20 -5 0 -10 -9 -10 -19z m107 -166 c-2 -5 -11 -11 -20 -13 -12 -3 -17
4 -17 21 0 13 3 27 7 31 9 9 35 -24 30 -39z m413 -195 c0 -5 -13 -16 -29 -24
-25 -13 -31 -14 -41 -1 -6 8 -9 19 -5 25 8 13 75 13 75 0z"/>
<path d="M6370 6919 c-144 -14 -299 -107 -428 -257 -47 -54 -52 -63 -52 -100
0 -37 51 -96 108 -126 38 -20 52 -44 52 -88 -1 -26 -11 -43 -45 -78 -25 -25
-45 -48 -45 -53 0 -25 42 -15 134 31 56 29 108 52 117 52 9 0 34 12 55 27 41
28 141 62 161 56 6 -2 27 4 45 13 48 26 308 27 355 1 18 -9 41 -17 51 -17 18
0 86 -27 176 -71 50 -24 56 -24 56 1 0 11 -12 28 -28 38 -99 61 -121 84 -137
141 -9 31 -20 70 -26 87 -5 17 -9 43 -9 58 0 53 -48 123 -133 193 -87 72 -246
108 -407 92z"/>
<path d="M5196 6612 c-3 -5 -10 -69 -16 -143 -6 -74 -18 -156 -26 -184 -16
-55 -57 -122 -89 -144 -11 -8 -33 -29 -50 -46 -16 -18 -43 -40 -60 -50 -16
-10 -58 -50 -92 -90 -57 -67 -64 -79 -74 -142 -16 -91 -4 -148 31 -148 24 0
25 2 22 63 -4 73 18 152 57 199 30 36 100 89 141 107 33 13 140 141 140 166 0
10 6 23 14 29 8 6 17 28 20 49 14 74 29 291 22 316 -6 25 -29 35 -40 18z"/>
<path d="M5578 6615 c-17 -17 16 -352 37 -375 8 -9 15 -22 15 -28 0 -18 86
-110 159 -171 86 -72 143 -136 169 -187 19 -36 20 -53 15 -129 -6 -81 -5 -87
12 -84 23 5 53 87 54 146 2 90 -108 251 -205 301 -78 40 -144 124 -176 222
-10 30 -23 109 -29 174 -5 66 -12 123 -15 128 -6 9 -28 11 -36 3z"/>
<path d="M4720 6141 c0 -6 5 -13 10 -16 6 -3 10 1 10 9 0 9 -4 16 -10 16 -5 0
-10 -4 -10 -9z"/>
<path d="M3518 5992 c-19 -15 -55 -47 -80 -72 -25 -25 -80 -76 -123 -115 -101
-92 -101 -92 -139 -151 -73 -110 -109 -197 -131 -319 -24 -133 -16 -270 25
-403 29 -93 100 -230 132 -255 15 -12 40 -32 55 -43 52 -39 166 -86 257 -105
50 -10 105 -22 123 -28 17 -5 71 -12 120 -16 48 -3 139 -13 201 -22 91 -12
122 -13 155 -3 24 7 200 18 407 26 374 14 442 11 565 -21 33 -8 72 -15 87 -15
15 0 37 -9 48 -20 19 -19 22 -19 43 -5 28 18 260 20 315 3 24 -7 37 -7 45 1 6
6 39 11 73 11 44 0 65 5 75 16 7 8 35 27 63 41 45 23 57 25 135 19 47 -3 111
-10 141 -16 30 -6 102 -13 160 -16 59 -4 112 -12 120 -19 12 -9 78 -10 290 -4
372 10 541 35 663 96 116 58 227 160 284 261 18 31 39 69 48 84 8 15 29 83 45
150 24 96 30 143 29 215 -1 50 1 95 5 101 8 13 -32 123 -55 148 -10 11 -19 25
-19 31 0 16 -66 130 -95 165 -14 16 -25 36 -25 44 0 7 -18 25 -39 38 -21 14
-49 39 -61 55 -12 17 -32 34 -46 37 -13 3 -28 12 -32 19 -4 7 -33 27 -64 44
-31 18 -61 38 -68 45 -16 20 -50 8 -50 -18 0 -19 27 -102 50 -151 20 -43 52
-196 46 -218 -4 -12 -14 -47 -22 -77 -33 -121 -98 -185 -265 -264 -55 -27
-228 -9 -364 36 -71 24 -185 79 -185 90 0 5 -11 8 -25 8 -14 0 -35 10 -47 22
-13 13 -29 21 -36 20 -12 -3 -177 62 -225 89 -31 17 -217 23 -275 9 -87 -21
-158 -65 -215 -137 -32 -40 -72 -76 -106 -95 -49 -28 -63 -31 -140 -32 -76 0
-93 3 -144 29 -47 24 -71 45 -114 104 -59 77 -129 131 -172 131 -15 1 -37 7
-51 15 -14 7 -29 10 -35 5 -5 -4 -41 -17 -80 -29 -38 -12 -82 -26 -97 -31 -16
-6 -40 -14 -55 -19 -16 -5 -50 -17 -78 -26 -27 -9 -70 -22 -95 -28 -25 -6 -50
-17 -55 -25 -10 -12 -60 -36 -170 -80 -22 -8 -47 -21 -55 -28 -8 -7 -41 -17
-73 -23 -31 -6 -65 -14 -75 -19 -46 -24 -109 -23 -173 3 -34 14 -68 25 -74 25
-26 0 -152 71 -188 106 -71 67 -84 98 -97 224 -11 103 -11 119 4 147 9 18 16
44 16 58 0 14 9 51 20 82 21 61 26 108 11 117 -5 3 -24 -7 -43 -22z"/>
<path d="M4650 5800 c0 -11 5 -20 10 -20 6 0 10 9 10 20 0 11 -4 20 -10 20 -5
0 -10 -9 -10 -20z"/>
<path d="M7817 4893 c-4 -3 -7 -21 -7 -39 0 -23 -10 -44 -30 -67 -16 -19 -30
-37 -30 -41 0 -3 -20 -35 -45 -70 -25 -36 -45 -68 -45 -73 0 -4 -20 -37 -45
-73 -25 -36 -45 -75 -45 -87 0 -12 -7 -28 -15 -37 -8 -8 -15 -20 -15 -26 0 -6
-9 -28 -20 -48 -35 -66 -58 -126 -70 -187 -6 -33 -15 -76 -20 -95 -5 -19 -16
-89 -25 -155 -9 -66 -23 -145 -30 -175 -8 -30 -13 -65 -12 -77 0 -12 -13 -53
-30 -90 -17 -37 -41 -92 -54 -120 -12 -29 -31 -55 -41 -59 -14 -4 -18 -15 -18
-48 0 -27 -6 -48 -15 -56 -8 -7 -15 -20 -15 -29 0 -9 -20 -37 -45 -61 -25 -24
-45 -50 -45 -56 0 -15 -133 -174 -156 -187 -9 -5 -48 -40 -88 -78 -39 -38
-102 -98 -141 -132 -225 -201 -355 -342 -355 -388 0 -14 17 -17 123 -22 67 -4
235 -7 372 -7 138 -1 418 -2 623 -2 223 -1 376 2 382 8 5 5 11 79 13 165 3 91
10 165 17 178 9 17 8 38 -4 94 -8 40 -15 86 -15 102 -1 17 -1 41 -2 55 -1 14
1 75 5 135 5 61 7 117 6 125 0 8 -3 335 -5 725 -1 391 -4 768 -6 839 -2 112 0
130 15 138 9 5 14 13 11 19 -7 10 -68 12 -78 2z"/>
<path d="M2910 4828 c0 -2 -2 -560 -4 -1241 -2 -887 0 -1242 8 -1252 6 -8 31
-18 56 -21 25 -3 344 -7 710 -9 366 -2 685 -5 710 -7 42 -3 45 -1 48 22 7 64
-107 211 -273 350 -111 93 -208 186 -216 207 -5 13 -16 23 -25 23 -24 0 -192
169 -206 207 -7 18 -19 35 -28 38 -32 10 -120 157 -120 200 0 9 -14 33 -31 53
-32 39 -48 75 -79 178 -12 42 -15 66 -8 78 7 13 6 21 -6 29 -14 10 -26 56 -42
157 -2 14 -8 63 -12 110 -11 105 -47 237 -117 421 -15 39 -55 104 -80 130 -8
9 -15 21 -15 28 0 21 -83 144 -138 204 -37 40 -105 97 -117 97 -8 0 -15 -1
-15 -2z"/>
<path d="M8032 4769 c2 -6 8 -10 13 -10 5 0 11 4 13 10 2 6 -4 11 -13 11 -9 0
-15 -5 -13 -11z"/>
<path d="M4645 4429 c-223 -25 -290 -35 -287 -41 1 -5 2 -15 2 -23 0 -8 17
-31 39 -52 21 -21 44 -49 51 -63 7 -14 44 -53 81 -88 37 -35 71 -72 74 -82 4
-13 15 -20 31 -20 32 0 57 -13 111 -57 24 -19 64 -40 90 -48 27 -7 89 -27 138
-43 175 -59 231 -66 460 -66 231 1 312 14 460 76 38 16 82 33 96 38 28 8 77
38 94 55 6 6 28 23 50 37 22 14 56 38 75 54 34 28 161 156 188 188 18 22 30
20 34 -6 4 -25 17 -32 38 -18 13 8 12 12 -7 25 -26 18 -30 57 -8 75 27 22 16
38 -40 55 -42 14 -58 15 -69 6 -9 -8 -28 -9 -57 -4 -92 17 -340 -2 -381 -29
-36 -24 -107 -39 -128 -28 -12 6 -25 4 -41 -8 -25 -18 -67 -22 -284 -27 -142
-4 -189 3 -209 30 -10 14 -16 13 -51 -5 -46 -24 -73 -25 -101 -6 -31 22 -143
56 -184 56 -20 0 -59 7 -86 15 -52 16 -70 16 -179 4z m1585 -30 c0 -5 -7 -9
-15 -9 -15 0 -20 12 -9 23 8 8 24 -1 24 -14z"/>
<path d="M3726 4298 c-15 -21 -7 -58 13 -58 18 0 33 31 27 55 -8 31 -20 32
-40 3z"/>
<path d="M6850 4145 c0 -29 3 -36 18 -33 11 2 17 13 17 33 0 20 -6 31 -17 33
-15 3 -18 -4 -18 -33z"/>
<path d="M3815 4010 c3 -5 8 -10 11 -10 2 0 4 5 4 10 0 6 -5 10 -11 10 -5 0
-7 -4 -4 -10z"/>
<path d="M7184 3526 c-9 -23 0 -51 16 -51 10 0 16 12 18 33 2 24 -1 32 -13 32
-8 0 -18 -6 -21 -14z"/>
<path d="M6130 3249 c0 -5 5 -7 10 -4 6 3 10 8 10 11 0 2 -4 4 -10 4 -5 0 -10
-5 -10 -11z"/>
<path d="M6667 3234 c-11 -11 -8 -44 3 -44 15 0 24 30 13 41 -5 5 -12 6 -16 3z"/>
<path d="M5761 3191 c-12 -7 -10 -14 8 -38 21 -25 56 -52 72 -53 4 0 9 9 12
19 3 14 -6 28 -34 50 -43 35 -39 34 -58 22z"/>
<path d="M7986 3071 c-9 -14 5 -42 18 -38 18 6 20 47 2 47 -8 0 -17 -4 -20 -9z"/>
<path d="M6223 2946 c-18 -17 -33 -34 -33 -37 0 -11 29 -19 45 -13 13 5 33 71
24 78 -2 1 -19 -12 -36 -28z"/>
<path d="M5367 2924 c-11 -11 -8 -52 4 -60 14 -8 30 15 27 40 -3 21 -20 31
-31 20z"/>
<path d="M6477 2914 c-11 -11 3 -24 18 -18 8 4 12 10 9 15 -6 11 -18 12 -27 3z"/>
<path d="M5451 2594 c0 -11 3 -14 6 -6 3 7 2 16 -1 19 -3 4 -6 -2 -5 -13z"/>
<path d="M6210 2435 c0 -14 5 -25 10 -25 6 0 10 4 10 9 0 5 3 16 6 25 4 11 1
16 -10 16 -10 0 -16 -9 -16 -25z"/>
<path d="M5617 2203 c-11 -11 -8 -20 9 -27 21 -8 34 1 27 19 -5 16 -25 20 -36
8z"/>
<path d="M3050 1505 c0 -8 5 -15 10 -15 6 0 10 7 10 15 0 8 -4 15 -10 15 -5 0
-10 -7 -10 -15z"/>
<path d="M4344 1497 c-2 -7 -3 -88 -2 -181 l3 -168 69 -4 c107 -4 104 -9 109
168 2 84 7 163 12 176 7 22 7 22 -89 22 -70 0 -98 -4 -102 -13z"/>
<path d="M6277 1514 c-12 -12 -8 -22 24 -59 29 -33 35 -35 93 -35 58 0 64 2
74 26 15 32 0 64 -31 64 -12 1 -52 3 -88 6 -36 2 -68 1 -72 -2z"/>
<path d="M7528 1293 c-24 -6 -23 -23 2 -23 11 0 20 7 20 15 0 8 -1 14 -2 14
-2 -1 -11 -3 -20 -6z"/>
</g>
</svg>
